<?xml version="1.0" encoding="UTF-8" standalone="no"?>
<!-- Created with Inkscape (http://www.inkscape.org/) -->

<svg
   xmlns:dc="http://purl.org/dc/elements/1.1/"
   xmlns:cc="http://creativecommons.org/ns#"
   xmlns:rdf="http://www.w3.org/1999/02/22-rdf-syntax-ns#"
   xmlns:svg="http://www.w3.org/2000/svg"
   xmlns="http://www.w3.org/2000/svg"
   xmlns:sodipodi="http://sodipodi.sourceforge.net/DTD/sodipodi-0.dtd"
   xmlns:inkscape="http://www.inkscape.org/namespaces/inkscape"
   width="951.56958"
   height="356.4375"
   id="svg6365"
   version="1.1"
   inkscape:version="0.48.3.1 r9886"
   sodipodi:docname="New document 86">
  <defs
     id="defs6367" />
  <sodipodi:namedview
     id="base"
     pagecolor="#ffffff"
     bordercolor="#666666"
     borderopacity="1.0"
     inkscape:pageopacity="0.0"
     inkscape:pageshadow="2"
     inkscape:zoom="0.44567062"
     inkscape:cx="653.64072"
     inkscape:cy="-129.02644"
     inkscape:document-units="px"
     inkscape:current-layer="layer1"
     showgrid="false"
     fit-margin-top="20"
     fit-margin-left="20"
     fit-margin-right="20"
     fit-margin-bottom="20"
     inkscape:window-width="1855"
     inkscape:window-height="1060"
     inkscape:window-x="-3"
     inkscape:window-y="-3"
     inkscape:window-maximized="1" />
  <metadata
     id="metadata6370">
    <rdf:RDF>
      <cc:Work
         rdf:about="">
        <dc:format>image/svg+xml</dc:format>
        <dc:type
           rdf:resource="http://purl.org/dc/dcmitype/StillImage" />
        <dc:title></dc:title>
      </cc:Work>
    </rdf:RDF>
  </metadata>
  <g
     inkscape:label="Layer 1"
     inkscape:groupmode="layer"
     id="layer1"
     transform="translate(68.163349,19.53125)">
    <path
       style="fill:none;stroke:#000000;stroke-width:1;stroke-linecap:butt;stroke-linejoin:miter;stroke-miterlimit:4;stroke-opacity:1;stroke-dasharray:4, 4;stroke-dashoffset:0"
       d="M 14.131245,223.72409 178.32599,2.0983546"
       id="path6547"
       inkscape:connector-curvature="0"
       sodipodi:nodetypes="cc" />
    <path
       style="fill:none;stroke:#000000;stroke-width:1;stroke-linecap:butt;stroke-linejoin:miter;stroke-miterlimit:4;stroke-opacity:1;stroke-dasharray:4, 4;stroke-dashoffset:0"
       d="M 289.27839,216.71219 134.77587,3.4924796"
       id="path6549"
       inkscape:connector-curvature="0"
       sodipodi:nodetypes="cc" />
    <path
       style="fill:#eeeeee;stroke:#aaaaaa;stroke-width:2;stroke-linecap:butt;stroke-linejoin:miter;stroke-miterlimit:4;stroke-opacity:1;stroke-dasharray:none"
       d="M 26.721415,254.64232 13.631855,223.70337 154.0471,84.874732 289.7025,217.35692 275.81964,248.69252 154.0471,126.91998 z"
       id="path6654"
       inkscape:connector-curvature="0" />
    <path
       sodipodi:type="arc"
       style="fill:#eeeeee;stroke:#aaaaaa;stroke-width:4.20294857;stroke-linecap:butt;stroke-linejoin:round;stroke-miterlimit:4;stroke-opacity:0.99215686;stroke-dasharray:none;stroke-dashoffset:0"
       id="path6489-2"
       sodipodi:cx="-189.60191"
       sodipodi:cy="350.0498"
       sodipodi:rx="87.508575"
       sodipodi:ry="87.508575"
       d="m -102.09334,350.0498 c 0,48.32966 -39.17892,87.50858 -87.50857,87.50858 -48.32966,0 -87.50858,-39.17892 -87.50858,-87.50858 0,-48.32965 39.17892,-87.50857 87.50858,-87.50857 48.32965,0 87.50857,39.17892 87.50857,87.50857 z"
       transform="matrix(0.4758564,0,0,0.4758564,84.70468,90.978487)" />
    <path
       sodipodi:type="arc"
       style="fill:#eeeeee;stroke:#aaaaaa;stroke-width:4.20294857;stroke-linecap:butt;stroke-linejoin:round;stroke-miterlimit:4;stroke-opacity:0.99215686;stroke-dasharray:none;stroke-dashoffset:0"
       id="path6489-2-4-7"
       sodipodi:cx="-189.60191"
       sodipodi:cy="350.0498"
       sodipodi:rx="87.508575"
       sodipodi:ry="87.508575"
       d="m -102.09334,350.0498 c 0,48.32966 -39.17892,87.50858 -87.50857,87.50858 -48.32966,0 -87.50858,-39.17892 -87.50858,-87.50858 0,-48.32965 39.17892,-87.50857 87.50858,-87.50857 48.32965,0 87.50857,39.17892 87.50857,87.50857 z"
       transform="matrix(0.4758564,0,0,0.4758564,392.92125,90.978487)" />
    <path
       style="fill:#666666;fill-opacity:1;stroke:#000000;stroke-width:1px;stroke-linecap:butt;stroke-linejoin:miter;stroke-opacity:1"
       d="m 155.49125,33.000274 -30.29143,42.632382 58.9,-1.121905 z"
       id="path7164"
       inkscape:connector-curvature="0" />
    <path
       sodipodi:type="arc"
       style="fill:#eeeeee;stroke:#aaaaaa;stroke-width:4.20294857;stroke-linecap:butt;stroke-linejoin:round;stroke-miterlimit:4;stroke-opacity:0.99215686;stroke-dasharray:none;stroke-dashoffset:0"
       id="path6489-2-4"
       sodipodi:cx="-189.60191"
       sodipodi:cy="350.0498"
       sodipodi:rx="87.508575"
       sodipodi:ry="87.508575"
       d="m -102.09334,350.0498 c 0,48.32966 -39.17892,87.50858 -87.50857,87.50858 -48.32966,0 -87.50858,-39.17892 -87.50858,-87.50858 0,-48.32965 39.17892,-87.50857 87.50858,-87.50857 48.32965,0 87.50857,39.17892 87.50857,87.50857 z"
       transform="matrix(0.4758564,0,0,0.4758564,245.78259,-62.200942)" />
    <path
       style="fill:none;stroke:#000000;stroke-width:1;stroke-linecap:butt;stroke-linejoin:miter;stroke-miterlimit:4;stroke-opacity:1;stroke-dasharray:4, 4;stroke-dashoffset:0"
       d="M 500.98005,222.4076 665.1748,0.78186857"
       id="path6547-1"
       inkscape:connector-curvature="0"
       sodipodi:nodetypes="cc" />
    <path
       style="fill:none;stroke:#000000;stroke-width:1;stroke-linecap:butt;stroke-linejoin:miter;stroke-miterlimit:4;stroke-opacity:1;stroke-dasharray:4, 4;stroke-dashoffset:0"
       d="M 776.1272,215.3957 621.62468,2.1759886"
       id="path6549-7"
       inkscape:connector-curvature="0"
       sodipodi:nodetypes="cc" />
    <path
       style="fill:#eeeeee;stroke:#aaaaaa;stroke-width:2;stroke-linecap:butt;stroke-linejoin:miter;stroke-miterlimit:4;stroke-opacity:1;stroke-dasharray:none"
       d="M 513.57022,253.32583 500.48066,222.38688 640.89591,83.558249 776.55131,216.04043 762.66845,247.37603 640.89591,125.60349 z"
       id="path6654-7"
       inkscape:connector-curvature="0" />
    <path
       sodipodi:type="arc"
       style="fill:#eeeeee;stroke:#aaaaaa;stroke-width:4.20294857;stroke-linecap:butt;stroke-linejoin:round;stroke-miterlimit:4;stroke-opacity:0.99215686;stroke-dasharray:none;stroke-dashoffset:0"
       id="path6489-2-4-7-2"
       sodipodi:cx="-189.60191"
       sodipodi:cy="350.0498"
       sodipodi:rx="87.508575"
       sodipodi:ry="87.508575"
       d="m -102.09334,350.0498 c 0,48.32966 -39.17892,87.50858 -87.50857,87.50858 -48.32966,0 -87.50858,-39.17892 -87.50858,-87.50858 0,-48.32965 39.17892,-87.50857 87.50858,-87.50857 48.32965,0 87.50857,39.17892 87.50857,87.50857 z"
       transform="matrix(0.4758564,0,0,0.4758564,879.77006,89.661999)" />
    <path
       style="fill:#666666;fill-opacity:1;stroke:#000000;stroke-width:1px;stroke-linecap:butt;stroke-linejoin:miter;stroke-opacity:1"
       d="m 642.34006,31.683789 -30.29143,42.63238 58.9,-1.1219 z"
       id="path7164-0"
       inkscape:connector-curvature="0" />
    <path
       style="fill:#cccccf;stroke:#000000;stroke-width:2;stroke-linecap:butt;stroke-linejoin:miter;stroke-miterlimit:4;stroke-opacity:1;stroke-dasharray:none"
       d="m 660.22931,144.62124 37.88039,-37.08708 -55.53145,-76.157413 -56.63343,76.562333 36.17659,36.12847 z"
       id="path8804"
       inkscape:connector-curvature="0"
       sodipodi:nodetypes="cccccc" />
    <path
       sodipodi:type="arc"
       style="fill:#cccccf;stroke:#000000;stroke-width:2.10147429;stroke-linecap:butt;stroke-linejoin:round;stroke-miterlimit:4;stroke-opacity:0.99215686;stroke-dasharray:8.40589724, 8.40589724;stroke-dashoffset:0"
       id="path6489-2-4-4"
       sodipodi:cx="-189.60191"
       sodipodi:cy="350.0498"
       sodipodi:rx="87.508575"
       sodipodi:ry="87.508575"
       d="m -102.09334,350.0498 c 0,48.32966 -39.17892,87.50858 -87.50857,87.50858 -48.32966,0 -87.50858,-39.17892 -87.50858,-87.50858 0,-48.32965 39.17892,-87.50857 87.50858,-87.50857 48.32965,0 87.50857,39.17892 87.50857,87.50857 z"
       transform="matrix(0.4758564,0,0,0.4758564,732.6314,-63.517431)" />
    <path
       style="fill:#cccccf;stroke:#000000;stroke-width:2;stroke-linecap:butt;stroke-linejoin:miter;stroke-miterlimit:4;stroke-opacity:1;stroke-dasharray:none"
       d="m 748.51319,273.1944 37.16437,37.80457 76.04385,-55.68687 -76.67785,-56.47695 -36.05451,36.2503 z"
       id="path8804-8"
       inkscape:connector-curvature="0"
       sodipodi:nodetypes="cccccc" />
    <path
       style="fill:#cccccf;stroke:#000000;stroke-width:2;stroke-linecap:butt;stroke-linejoin:miter;stroke-miterlimit:4;stroke-opacity:1;stroke-dasharray:none"
       d="m 524.99936,277.76998 -37.16437,37.80457 -76.04385,-55.68687 76.67785,-56.47695 36.05451,36.2503 z"
       id="path8804-8-1"
       inkscape:connector-curvature="0"
       sodipodi:nodetypes="cccccc" />
    <path
       style="fill:none;stroke:#000000;stroke-width:1;stroke-linecap:butt;stroke-linejoin:miter;stroke-miterlimit:4;stroke-opacity:1;stroke-dasharray:4, 4;stroke-dashoffset:0"
       d="M 411.54073,258.9198 600.41738,123.68073"
       id="path6547-1-6"
       inkscape:connector-curvature="0"
       sodipodi:nodetypes="cc" />
    <path
       style="fill:none;stroke:#000000;stroke-width:1;stroke-linecap:butt;stroke-linejoin:miter;stroke-miterlimit:4;stroke-opacity:1;stroke-dasharray:4, 4;stroke-dashoffset:0"
       d="M 862.54646,255.55409 681.75548,123.68073"
       id="path6547-1-6-1"
       inkscape:connector-curvature="0"
       sodipodi:nodetypes="cc" />
    <path
       sodipodi:type="arc"
       style="fill:#cccccf;stroke:#000000;stroke-width:2.10147429;stroke-linecap:butt;stroke-linejoin:round;stroke-miterlimit:4;stroke-opacity:0.99215686;stroke-dasharray:8.40589724, 8.40589724;stroke-dashoffset:0"
       id="path6489-2-4-4-9"
       sodipodi:cx="-189.60191"
       sodipodi:cy="350.0498"
       sodipodi:rx="87.508575"
       sodipodi:ry="87.508575"
       d="m -102.09334,350.0498 c 0,48.32966 -39.17892,87.50858 -87.50857,87.50858 -48.32966,0 -87.50858,-39.17892 -87.50858,-87.50858 0,-48.32965 39.17892,-87.50857 87.50858,-87.50857 48.32965,0 87.50857,39.17892 87.50857,87.50857 z"
       transform="matrix(0.4758564,0,0,0.4758564,881.7271,88.114445)" />
    <path
       sodipodi:type="arc"
       style="fill:#cccccf;stroke:#000000;stroke-width:2.10147429;stroke-linecap:butt;stroke-linejoin:round;stroke-miterlimit:4;stroke-opacity:0.99215686;stroke-dasharray:8.40589724, 8.40589724;stroke-dashoffset:0"
       id="path6489-2-4-4-9-4"
       sodipodi:cx="-189.60191"
       sodipodi:cy="350.0498"
       sodipodi:rx="87.508575"
       sodipodi:ry="87.508575"
       d="m -102.09334,350.0498 c 0,48.32966 -39.17892,87.50858 -87.50857,87.50858 -48.32966,0 -87.50858,-39.17892 -87.50858,-87.50858 0,-48.32965 39.17892,-87.50857 87.50858,-87.50857 48.32965,0 87.50857,39.17892 87.50857,87.50857 z"
       transform="matrix(0.4758564,0,0,0.4758564,572.64234,93.723967)" />
  </g>
</svg>
