<?xml version="1.0" encoding="UTF-8" standalone="no"?>
<!-- Created with Inkscape (http://www.inkscape.org/) -->

<svg
   xmlns:dc="http://purl.org/dc/elements/1.1/"
   xmlns:cc="http://creativecommons.org/ns#"
   xmlns:rdf="http://www.w3.org/1999/02/22-rdf-syntax-ns#"
   xmlns:svg="http://www.w3.org/2000/svg"
   xmlns="http://www.w3.org/2000/svg"
   xmlns:sodipodi="http://sodipodi.sourceforge.net/DTD/sodipodi-0.dtd"
   xmlns:inkscape="http://www.inkscape.org/namespaces/inkscape"
   width="602.54871"
   height="204.86864"
   id="svg2"
   version="1.1"
   inkscape:version="0.48.4 r9939"
   sodipodi:docname="New document 1">
  <sodipodi:namedview
     id="base"
     pagecolor="#ffffff"
     bordercolor="#666666"
     borderopacity="1.0"
     inkscape:pageopacity="0.0"
     inkscape:pageshadow="2"
     inkscape:zoom="1.2591797"
     inkscape:cx="200.76483"
     inkscape:cy="-33.678879"
     inkscape:document-units="px"
     inkscape:current-layer="layer1"
     showgrid="false"
     inkscape:window-width="1855"
     inkscape:window-height="1060"
     inkscape:window-x="-3"
     inkscape:window-y="-3"
     inkscape:window-maximized="1"
     fit-margin-top="0"
     fit-margin-left="0"
     fit-margin-right="0"
     fit-margin-bottom="0" />
  <defs
     id="defs4">
    <marker
       style="overflow:visible"
       id="Arrow2Lend"
       refX="0"
       refY="0"
       orient="auto"
       inkscape:stockid="Arrow2Lend">
      <path
         transform="matrix(-1.1,0,0,-1.1,-1.1,0)"
         d="M 8.7185878,4.0337352 -2.2072895,0.01601326 8.7185884,-4.0017078 c -1.7454984,2.3720609 -1.7354408,5.6174519 -6e-7,8.035443 z"
         style="fill-rule:evenodd;stroke-width:0.625;stroke-linejoin:round"
         id="path3820"
         inkscape:connector-curvature="0" />
    </marker>
    <marker
       style="overflow:visible"
       id="Arrow1Mend"
       refX="0"
       refY="0"
       orient="auto"
       inkscape:stockid="Arrow1Mend">
      <path
         transform="matrix(-0.4,0,0,-0.4,-4,0)"
         style="fill-rule:evenodd;stroke:#000000;stroke-width:1pt"
         d="M 0,0 5,-5 -12.5,0 5,5 0,0 z"
         id="path3808"
         inkscape:connector-curvature="0" />
    </marker>
    <marker
       inkscape:stockid="TriangleOutL"
       orient="auto"
       refY="0"
       refX="0"
       id="TriangleOutL"
       style="overflow:visible">
      <path
         id="path3941"
         d="m 5.77,0 -8.65,5 0,-10 8.65,5 z"
         style="fill-rule:evenodd;stroke:#000000;stroke-width:1pt"
         transform="scale(0.8,0.8)"
         inkscape:connector-curvature="0" />
    </marker>
    <marker
       inkscape:stockid="TriangleOutLg"
       orient="auto"
       refY="0"
       refX="0"
       id="TriangleOutLg"
       style="overflow:visible">
      <path
         id="path4246"
         d="m 5.77,0 -8.65,5 0,-10 8.65,5 z"
         style="fill:#d40000;fill-rule:evenodd;stroke:#d40000;stroke-width:1pt"
         transform="scale(0.8,0.8)"
         inkscape:connector-curvature="0" />
    </marker>
    <marker
       inkscape:stockid="TriangleOutLx"
       orient="auto"
       refY="0"
       refX="0"
       id="TriangleOutLx"
       style="overflow:visible">
      <path
         id="path4249"
         d="m 5.77,0 -8.65,5 0,-10 8.65,5 z"
         style="fill:#d40000;fill-rule:evenodd;stroke:#d40000;stroke-width:1pt"
         transform="scale(0.8,0.8)"
         inkscape:connector-curvature="0" />
    </marker>
    <marker
       style="overflow:visible"
       id="Arrow1Mend-9"
       refX="0"
       refY="0"
       orient="auto"
       inkscape:stockid="Arrow1Mend">
      <path
         transform="matrix(-0.4,0,0,-0.4,-4,0)"
         style="fill-rule:evenodd;stroke:#000000;stroke-width:1pt"
         d="M 0,0 5,-5 -12.5,0 5,5 0,0 z"
         id="path3808-8"
         inkscape:connector-curvature="0" />
    </marker>
    <marker
       style="overflow:visible"
       id="Arrow1Mend-95"
       refX="0"
       refY="0"
       orient="auto"
       inkscape:stockid="Arrow1Mend">
      <path
         transform="matrix(-0.4,0,0,-0.4,-4,0)"
         style="fill-rule:evenodd;stroke:#000000;stroke-width:1pt"
         d="M 0,0 5,-5 -12.5,0 5,5 0,0 z"
         id="path3808-2"
         inkscape:connector-curvature="0" />
    </marker>
    <marker
       style="overflow:visible"
       id="Arrow1Mend-97"
       refX="0"
       refY="0"
       orient="auto"
       inkscape:stockid="Arrow1Mend">
      <path
         transform="matrix(-0.4,0,0,-0.4,-4,0)"
         style="fill-rule:evenodd;stroke:#000000;stroke-width:1pt"
         d="M 0,0 5,-5 -12.5,0 5,5 0,0 z"
         id="path3808-5"
         inkscape:connector-curvature="0" />
    </marker>
    <marker
       style="overflow:visible"
       id="Arrow1Mend-7"
       refX="0"
       refY="0"
       orient="auto"
       inkscape:stockid="Arrow1Mend">
      <path
         transform="matrix(-0.4,0,0,-0.4,-4,0)"
         style="fill-rule:evenodd;stroke:#000000;stroke-width:1pt"
         d="M 0,0 5,-5 -12.5,0 5,5 0,0 z"
         id="path3808-1"
         inkscape:connector-curvature="0" />
    </marker>
    <marker
       style="overflow:visible"
       id="Arrow1Mend-4"
       refX="0"
       refY="0"
       orient="auto"
       inkscape:stockid="Arrow1Mend">
      <path
         transform="matrix(-0.4,0,0,-0.4,-4,0)"
         style="fill-rule:evenodd;stroke:#000000;stroke-width:1pt"
         d="M 0,0 5,-5 -12.5,0 5,5 0,0 z"
         id="path3808-22"
         inkscape:connector-curvature="0" />
    </marker>
    <marker
       style="overflow:visible"
       id="Arrow1Mend-2"
       refX="0"
       refY="0"
       orient="auto"
       inkscape:stockid="Arrow1Mend">
      <path
         transform="matrix(-0.4,0,0,-0.4,-4,0)"
         style="fill-rule:evenodd;stroke:#000000;stroke-width:1pt"
         d="M 0,0 5,-5 -12.5,0 5,5 0,0 z"
         id="path3808-11"
         inkscape:connector-curvature="0" />
    </marker>
    <marker
       style="overflow:visible"
       id="Arrow1Mend-24"
       refX="0"
       refY="0"
       orient="auto"
       inkscape:stockid="Arrow1Mend">
      <path
         transform="matrix(-0.4,0,0,-0.4,-4,0)"
         style="fill-rule:evenodd;stroke:#000000;stroke-width:1pt"
         d="M 0,0 5,-5 -12.5,0 5,5 0,0 z"
         id="path3808-3"
         inkscape:connector-curvature="0" />
    </marker>
    <marker
       style="overflow:visible"
       id="Arrow2Lendy"
       refX="0"
       refY="0"
       orient="auto"
       inkscape:stockid="Arrow2Lendy">
      <path
         transform="matrix(-1.1,0,0,-1.1,-1.1,0)"
         d="M 8.7185878,4.0337352 -2.2072895,0.01601326 8.7185884,-4.0017078 c -1.7454984,2.3720609 -1.7354408,5.6174519 -6e-7,8.035443 z"
         style="fill:#666666;fill-rule:evenodd;stroke:#666666;stroke-width:0.625;stroke-linejoin:round"
         id="path5265"
         inkscape:connector-curvature="0" />
    </marker>
    <marker
       style="overflow:visible"
       id="Arrow2Lendy-7"
       refX="0"
       refY="0"
       orient="auto"
       inkscape:stockid="Arrow2Lendy">
      <path
         inkscape:connector-curvature="0"
         transform="matrix(-1.1,0,0,-1.1,-1.1,0)"
         d="M 8.7185878,4.0337352 -2.2072895,0.01601326 8.7185884,-4.0017078 c -1.7454984,2.3720609 -1.7354408,5.6174519 -6e-7,8.035443 z"
         style="fill:#666666;fill-rule:evenodd;stroke:#666666;stroke-width:0.625;stroke-linejoin:round"
         id="path5265-3" />
    </marker>
    <marker
       style="overflow:visible"
       id="Arrow2Lendy-2"
       refX="0"
       refY="0"
       orient="auto"
       inkscape:stockid="Arrow2Lendy">
      <path
         inkscape:connector-curvature="0"
         transform="matrix(-1.1,0,0,-1.1,-1.1,0)"
         d="M 8.7185878,4.0337352 -2.2072895,0.01601326 8.7185884,-4.0017078 c -1.7454984,2.3720609 -1.7354408,5.6174519 -6e-7,8.035443 z"
         style="fill:#666666;fill-rule:evenodd;stroke:#666666;stroke-width:0.625;stroke-linejoin:round"
         id="path5265-2" />
    </marker>
    <marker
       style="overflow:visible"
       id="Arrow2Lendy-22"
       refX="0"
       refY="0"
       orient="auto"
       inkscape:stockid="Arrow2Lendy">
      <path
         inkscape:connector-curvature="0"
         transform="matrix(-1.1,0,0,-1.1,-1.1,0)"
         d="M 8.7185878,4.0337352 -2.2072895,0.01601326 8.7185884,-4.0017078 c -1.7454984,2.3720609 -1.7354408,5.6174519 -6e-7,8.035443 z"
         style="fill:#666666;fill-rule:evenodd;stroke:#666666;stroke-width:0.625;stroke-linejoin:round"
         id="path5265-26" />
    </marker>
    <marker
       style="overflow:visible"
       id="Arrow2Lendy-1"
       refX="0"
       refY="0"
       orient="auto"
       inkscape:stockid="Arrow2Lendy">
      <path
         inkscape:connector-curvature="0"
         transform="matrix(-1.1,0,0,-1.1,-1.1,0)"
         d="M 8.7185878,4.0337352 -2.2072895,0.01601326 8.7185884,-4.0017078 c -1.7454984,2.3720609 -1.7354408,5.6174519 -6e-7,8.035443 z"
         style="fill:#666666;fill-rule:evenodd;stroke:#666666;stroke-width:0.625;stroke-linejoin:round"
         id="path5265-35" />
    </marker>
    <marker
       style="overflow:visible"
       id="Arrow2Lendy-0"
       refX="0"
       refY="0"
       orient="auto"
       inkscape:stockid="Arrow2Lendy">
      <path
         inkscape:connector-curvature="0"
         transform="matrix(-1.1,0,0,-1.1,-1.1,0)"
         d="M 8.7185878,4.0337352 -2.2072895,0.01601326 8.7185884,-4.0017078 c -1.7454984,2.3720609 -1.7354408,5.6174519 -6e-7,8.035443 z"
         style="fill:#666666;fill-rule:evenodd;stroke:#666666;stroke-width:0.625;stroke-linejoin:round"
         id="path5265-8" />
    </marker>
    <marker
       style="overflow:visible"
       id="Arrow2Lendy-4"
       refX="0"
       refY="0"
       orient="auto"
       inkscape:stockid="Arrow2Lendy">
      <path
         inkscape:connector-curvature="0"
         transform="matrix(-1.1,0,0,-1.1,-1.1,0)"
         d="M 8.7185878,4.0337352 -2.2072895,0.01601326 8.7185884,-4.0017078 c -1.7454984,2.3720609 -1.7354408,5.6174519 -6e-7,8.035443 z"
         style="fill:#666666;fill-rule:evenodd;stroke:#666666;stroke-width:0.625;stroke-linejoin:round"
         id="path5265-1" />
    </marker>
    <marker
       style="overflow:visible"
       id="Arrow2Lendy-5"
       refX="0"
       refY="0"
       orient="auto"
       inkscape:stockid="Arrow2Lendy">
      <path
         inkscape:connector-curvature="0"
         transform="matrix(-1.1,0,0,-1.1,-1.1,0)"
         d="M 8.7185878,4.0337352 -2.2072895,0.01601326 8.7185884,-4.0017078 c -1.7454984,2.3720609 -1.7354408,5.6174519 -6e-7,8.035443 z"
         style="fill:#666666;fill-rule:evenodd;stroke:#666666;stroke-width:0.625;stroke-linejoin:round"
         id="path5265-4" />
    </marker>
    <marker
       style="overflow:visible"
       id="marker5416"
       refX="0"
       refY="0"
       orient="auto"
       inkscape:stockid="Arrow2Lendy">
      <path
         inkscape:connector-curvature="0"
         transform="matrix(-1.1,0,0,-1.1,-1.1,0)"
         d="M 8.7185878,4.0337352 -2.2072895,0.01601326 8.7185884,-4.0017078 c -1.7454984,2.3720609 -1.7354408,5.6174519 -6e-7,8.035443 z"
         style="fill:#666666;fill-rule:evenodd;stroke:#666666;stroke-width:0.625;stroke-linejoin:round"
         id="path5418" />
    </marker>
    <marker
       style="overflow:visible"
       id="marker5420"
       refX="0"
       refY="0"
       orient="auto"
       inkscape:stockid="Arrow2Lendy">
      <path
         inkscape:connector-curvature="0"
         transform="matrix(-1.1,0,0,-1.1,-1.1,0)"
         d="M 8.7185878,4.0337352 -2.2072895,0.01601326 8.7185884,-4.0017078 c -1.7454984,2.3720609 -1.7354408,5.6174519 -6e-7,8.035443 z"
         style="fill:#666666;fill-rule:evenodd;stroke:#666666;stroke-width:0.625;stroke-linejoin:round"
         id="path5422" />
    </marker>
    <marker
       style="overflow:visible"
       id="marker5424"
       refX="0"
       refY="0"
       orient="auto"
       inkscape:stockid="Arrow2Lendy">
      <path
         inkscape:connector-curvature="0"
         transform="matrix(-1.1,0,0,-1.1,-1.1,0)"
         d="M 8.7185878,4.0337352 -2.2072895,0.01601326 8.7185884,-4.0017078 c -1.7454984,2.3720609 -1.7354408,5.6174519 -6e-7,8.035443 z"
         style="fill:#666666;fill-rule:evenodd;stroke:#666666;stroke-width:0.625;stroke-linejoin:round"
         id="path5426" />
    </marker>
    <marker
       style="overflow:visible"
       id="marker5428"
       refX="0"
       refY="0"
       orient="auto"
       inkscape:stockid="Arrow2Lendy">
      <path
         inkscape:connector-curvature="0"
         transform="matrix(-1.1,0,0,-1.1,-1.1,0)"
         d="M 8.7185878,4.0337352 -2.2072895,0.01601326 8.7185884,-4.0017078 c -1.7454984,2.3720609 -1.7354408,5.6174519 -6e-7,8.035443 z"
         style="fill:#666666;fill-rule:evenodd;stroke:#666666;stroke-width:0.625;stroke-linejoin:round"
         id="path5430" />
    </marker>
  </defs>
  <metadata
     id="metadata7">
    <rdf:RDF>
      <cc:Work
         rdf:about="">
        <dc:format>image/svg+xml</dc:format>
        <dc:type
           rdf:resource="http://purl.org/dc/dcmitype/StillImage" />
        <dc:title></dc:title>
      </cc:Work>
    </rdf:RDF>
  </metadata>
  <g
     inkscape:label="Layer 1"
     inkscape:groupmode="layer"
     id="layer1"
     transform="translate(-116.93634,-276.65437)">
    <path
       sodipodi:nodetypes="caaacc"
       inkscape:connector-curvature="0"
       id="path4605-9"
       d="m 342.46971,477.01652 c 0,0 -12.8707,-117.18356 22.46247,-156.1141 40.53508,-44.66209 115.50593,-45.44759 175.76872,-42.95945 60.53327,2.49931 142.66185,4.77556 172.39939,57.56005 23.73846,42.13605 -32.00901,141.5135 -32.00901,141.5135 z"
       style="fill:#eeeeee;stroke:#aaaaaa;stroke-width:1px;stroke-linecap:butt;stroke-linejoin:miter;stroke-opacity:1" />
    <path
       sodipodi:nodetypes="csaacc"
       inkscape:connector-curvature="0"
       id="path4605"
       d="m 119.61259,476.20013 c 0,0 -12.24078,-128.18394 21.33934,-172.39938 12.71068,-16.73635 33.09022,-23.95731 50.54052,-19.37386 15.62383,4.10371 27.31298,21.59014 30.88589,37.34383 11.7787,51.93473 -38.74774,154.99097 -38.74774,154.99097 z"
       style="fill:#eeeeee;stroke:#aaaaaa;stroke-width:1px;stroke-linecap:butt;stroke-linejoin:miter;stroke-opacity:1" />
    <path
       style="fill:#d40000;stroke:#d40000;stroke-width:1.60000002;stroke-linecap:butt;stroke-linejoin:miter;stroke-miterlimit:4;stroke-opacity:1;stroke-dasharray:none;marker-end:url(#TriangleOutLg)"
       d="M 150.09772,478.17884 186.89027,292.06137"
       id="path2987"
       inkscape:connector-curvature="0"
       sodipodi:nodetypes="cc" />
    <path
       style="fill:#d40000;stroke:#d40000;stroke-width:1.60000002;stroke-linecap:butt;stroke-linejoin:miter;stroke-miterlimit:4;stroke-opacity:1;stroke-dasharray:none;marker-end:url(#TriangleOutLx)"
       d="M 508.26741,478.57593 550.70379,289.36161"
       id="path2987-3"
       inkscape:connector-curvature="0"
       sodipodi:nodetypes="cc" />
    <path
       inkscape:connector-curvature="0"
       id="path4625"
       d="m 139.8288,476.76168 10.66967,-164.5375"
       style="fill:none;stroke:#666666;stroke-width:1px;stroke-linecap:butt;stroke-linejoin:miter;stroke-opacity:1;marker-end:url(#Arrow2Lendy)"
       sodipodi:nodetypes="cc" />
    <path
       inkscape:connector-curvature="0"
       id="path4625-5"
       d="m 165.63314,477.90789 46.6096,-156.67564"
       style="fill:none;stroke:#666666;stroke-width:1px;stroke-linecap:butt;stroke-linejoin:miter;stroke-opacity:1;marker-end:url(#Arrow2Lendy)"
       sodipodi:nodetypes="cc" />
    <path
       inkscape:connector-curvature="0"
       id="path4625-5-5"
       d="M 488.33194,478.16486 507.42503,293.97271"
       style="fill:none;stroke:#666666;stroke-width:1px;stroke-linecap:butt;stroke-linejoin:miter;stroke-opacity:1;marker-end:url(#Arrow2Lendy)"
       sodipodi:nodetypes="cc" />
    <path
       inkscape:connector-curvature="0"
       id="path4625-5-0"
       d="M 460.25388,480.4111 470.92355,295.65738"
       style="fill:none;stroke:#666666;stroke-width:1px;stroke-linecap:butt;stroke-linejoin:miter;stroke-opacity:1;marker-end:url(#Arrow2Lendy)"
       sodipodi:nodetypes="cc" />
    <path
       inkscape:connector-curvature="0"
       id="path4625-5-7"
       d="M 431.61424,479.28798 429.36799,301.27301"
       style="fill:none;stroke:#666666;stroke-width:1px;stroke-linecap:butt;stroke-linejoin:miter;stroke-opacity:1;marker-end:url(#Arrow2Lendy)"
       sodipodi:nodetypes="cc" />
    <path
       inkscape:connector-curvature="0"
       id="path4625-5-6"
       d="M 403.53617,479.28798 387.25089,329.91264"
       style="fill:none;stroke:#666666;stroke-width:1px;stroke-linecap:butt;stroke-linejoin:miter;stroke-opacity:1;marker-end:url(#Arrow2Lendy)"
       sodipodi:nodetypes="cc" />
    <path
       inkscape:connector-curvature="0"
       id="path4625-5-06"
       d="M 373.21185,480.4111 358.04969,368.66038"
       style="fill:none;stroke:#666666;stroke-width:1px;stroke-linecap:butt;stroke-linejoin:miter;stroke-opacity:1;marker-end:url(#Arrow2Lendy)"
       sodipodi:nodetypes="cc" />
    <path
       inkscape:connector-curvature="0"
       id="path4625-5-5-9"
       d="M 645.84994,475.91862 703.12921,362.4832"
       style="fill:none;stroke:#666666;stroke-width:1px;stroke-linecap:butt;stroke-linejoin:miter;stroke-opacity:1;marker-end:url(#Arrow2Lendy)"
       sodipodi:nodetypes="cc" />
    <path
       inkscape:connector-curvature="0"
       id="path4625-5-0-2"
       d="M 617.77188,478.16486 685.15925,327.10483"
       style="fill:none;stroke:#666666;stroke-width:1px;stroke-linecap:butt;stroke-linejoin:miter;stroke-opacity:1;marker-end:url(#Arrow2Lendy)"
       sodipodi:nodetypes="cc" />
    <path
       inkscape:connector-curvature="0"
       id="path4625-5-7-6"
       d="M 589.13224,477.04174 654.27337,306.32705"
       style="fill:none;stroke:#666666;stroke-width:1px;stroke-linecap:butt;stroke-linejoin:miter;stroke-opacity:1;marker-end:url(#Arrow2Lendy)"
       sodipodi:nodetypes="cc" />
    <path
       inkscape:connector-curvature="0"
       id="path4625-5-6-5"
       d="M 561.05417,477.04174 624.51062,297.34208"
       style="fill:none;stroke:#666666;stroke-width:1px;stroke-linecap:butt;stroke-linejoin:miter;stroke-opacity:1;marker-end:url(#Arrow2Lendy)"
       sodipodi:nodetypes="cc" />
    <path
       inkscape:connector-curvature="0"
       id="path4625-5-06-8"
       d="m 530.72985,478.16486 55.59457,-183.6306"
       style="fill:none;stroke:#666666;stroke-width:1px;stroke-linecap:butt;stroke-linejoin:miter;stroke-opacity:1;marker-end:url(#Arrow2Lendy)"
       sodipodi:nodetypes="cc" />
    <path
       style="fill:none;stroke:#000000;stroke-width:5.0999999;stroke-linecap:butt;stroke-linejoin:miter;stroke-miterlimit:4;stroke-opacity:1;stroke-dasharray:none"
       d="m 120.71351,478.97301 63.53342,0"
       id="path2985"
       inkscape:connector-curvature="0"
       sodipodi:nodetypes="cc" />
    <path
       style="fill:none;stroke:#000000;stroke-width:5.0999999;stroke-linecap:butt;stroke-linejoin:miter;stroke-miterlimit:4;stroke-opacity:1;stroke-dasharray:none"
       d="m 342.28633,478.97301 339.90384,0"
       id="path2989"
       inkscape:connector-curvature="0" />
  </g>
</svg>
